<?xml version="1.0" ?><svg enable-background="new 0 0 500 500" id="Layer_1" version="1.1" viewBox="0 0 500 500" xml:space="preserve" xmlns="http://www.w3.org/2000/svg" xmlns:xlink="http://www.w3.org/1999/xlink"><g><g><path d="M325.8,195.2c-44.2,0-89-16.5-89-47.9s44.8-47.9,89-47.9s89,16.5,89,47.9S370,195.2,325.8,195.2z M325.8,126.8    c-40,0-61.6,14.6-61.6,20.5c0,6,21.6,20.5,61.6,20.5s61.6-14.6,61.6-20.5C387.4,141.3,365.8,126.8,325.8,126.8z"/></g><g><path d="M325.8,250c-44.2,0-89-16.5-89-47.9v-54.8h27.4v54.8c0,6,21.6,20.5,61.6,20.5s61.6-14.6,61.6-20.5v-54.8h27.4v54.8    C414.8,233.5,370,250,325.8,250z"/></g><g><path d="M325.8,304.7c-44.2,0-89-16.5-89-47.9v-54.8h27.4v54.8c0,6,21.6,20.5,61.6,20.5s61.6-14.6,61.6-20.5v-54.8h27.4v54.8    C414.8,288.3,370,304.7,325.8,304.7z"/></g><g><path d="M325.8,359.5c-44.2,0-89-16.5-89-47.9v-54.8h27.4v54.8c0,6,21.6,20.5,61.6,20.5s61.6-14.6,61.6-20.5v-54.8h27.4v54.8    C414.8,343,370,359.5,325.8,359.5z"/></g><g><path d="M175.2,291c-44.2,0-89-16.5-89-47.9s44.8-47.9,89-47.9s89,16.5,89,47.9S219.4,291,175.2,291z M175.2,222.6    c-40,0-61.6,14.6-61.6,20.5c0,6,21.6,20.5,61.6,20.5s61.6-14.6,61.6-20.5C236.8,237.2,215.2,222.6,175.2,222.6z"/></g><g><path d="M175.2,345.8c-44.2,0-89-16.5-89-47.9v-54.8h27.4v54.8c0,6,21.6,20.5,61.6,20.5s61.6-14.6,61.6-20.5v-54.8h27.4v54.8    C264.2,329.3,219.4,345.8,175.2,345.8z"/></g><g><path d="M175.2,400.5c-44.2,0-89-16.5-89-47.9v-54.8h27.4v54.8c0,6,21.6,20.5,61.6,20.5s61.6-14.6,61.6-20.5v-54.8h27.4v54.8    C264.2,384.1,219.4,400.5,175.2,400.5z"/></g></g></svg>