<?xml version="1.0" ?><svg viewBox="0 0 44 37" xmlns="http://www.w3.org/2000/svg"><defs><style>.cls-1{fill:#f7931e;}</style></defs><title/><g data-name="Layer 2" id="Layer_2"><g data-name="Layer 1" id="Layer_1-2"><path class="cls-1" d="M39.4,0H4.6A4.6,4.6,0,0,0,0,4.6V26.4A4.6,4.6,0,0,0,4.6,31H15v4H13.15a1,1,0,0,0,0,2H31a1,1,0,0,0,0-2H29V31H39.4A4.6,4.6,0,0,0,44,26.4V4.6A4.6,4.6,0,0,0,39.4,0ZM27,31v4H17V31ZM2,4.6A2.6,2.6,0,0,1,4.6,2H39.4A2.6,2.6,0,0,1,42,4.6V24l-.1,0H2ZM39.4,29H4.6A2.6,2.6,0,0,1,2,26.4V26H41.9l.1,0v.42A2.6,2.6,0,0,1,39.4,29Z"/></g></g></svg>