<?xml version='1.0' encoding='iso-8859-1'?>
<!DOCTYPE svg PUBLIC '-//W3C//DTD SVG 1.1//EN' 'http://www.w3.org/Graphics/SVG/1.1/DTD/svg11.dtd'>
<svg version="1.1" xmlns="http://www.w3.org/2000/svg" viewBox="0 0 475.901 475.901" xmlns:xlink="http://www.w3.org/1999/xlink" enable-background="new 0 0 475.901 475.901">
  <g>
    <path d="m243.358,153.726v-44.871c0-5.523-4.478-10-10-10h-10.578v-48.311c0-5.523-4.478-10-10-10h-35.738c-5.522,0-10,4.477-10,10v48.311h-10.578c-5.522,0-10,4.477-10,10v44.868c-17.697,14.216-29.056,36.016-29.056,60.429v238.005c0,13.092 10.65,23.743 23.742,23.743h107.518c13.092,0 23.743-10.651 23.743-23.743v-238.004c-0.001-24.413-11.358-46.211-29.053-60.427zm-56.317-93.182h15.738v38.311h-15.738v-38.311zm-20.578,58.311h10.578 35.738 10.578v23.229c-8.815-3.492-18.407-5.433-28.449-5.433-10.041,0-19.632,1.94-28.445,5.431v-23.227zm85.947,247.251h-68.722v-109h68.722v109zm0-124h-76.222c-4.143,0-7.5,3.358-7.5,7.5v124c0,4.142 3.357,7.5 7.5,7.5h76.222v71.052c0,2.063-1.679,3.743-3.743,3.743h-107.517c-2.063,0-3.742-1.679-3.742-3.743v-238.005c0-31.706 25.795-57.501 57.501-57.501 31.707,0 57.502,25.795 57.502,57.501v27.953z"/>
    <path d="m350.998,97.364c3.42,0 6.511-2.355 7.305-5.831 0.923-4.038-1.603-8.06-5.641-8.982l-70.207-16.045 70.207-16.045c4.038-0.923 6.563-4.945 5.641-8.982-0.922-4.038-4.944-6.562-8.982-5.641l-53.644,12.26 59.065-34.101c3.587-2.071 4.816-6.658 2.745-10.245-2.07-3.588-6.66-4.816-10.245-2.745l-102.2,59.004c-2.32,1.34-3.75,3.816-3.75,6.495s1.43,5.156 3.75,6.495l102.199,59.005c1.182,0.682 2.471,1.006 3.743,1.006 2.592,0 5.113-1.345 6.502-3.751 2.071-3.587 0.842-8.174-2.745-10.245l-59.065-34.101 53.644,12.26c0.563,0.128 1.125,0.189 1.678,0.189z"/>
  </g>
</svg>
