<?xml version="1.0" encoding="utf-8"?>
<!-- Generator: Adobe Illustrator 22.1.0, SVG Export Plug-In . SVG Version: 6.00 Build 0)  -->
<svg version="1.1" id="Capa_1" xmlns="http://www.w3.org/2000/svg" xmlns:xlink="http://www.w3.org/1999/xlink" x="0px" y="0px"
	 viewBox="0 0 28 28" style="enable-background:new 0 0 28 28;" xml:space="preserve">
<g>
	<path d="M23.3,28.1V11.7c0-1.5-0.4-3-1.3-4.3v3.9c0,3.8-3.1,6.9-6.9,6.9c-3.8,0-6.9-3.1-6.9-6.9V7.3c-0.8,1.3-1.3,2.8-1.3,4.3v16.4
		H5.3V11.7c0-2.6,1-5.1,2.9-6.9l0-2.4L8.5,2c2-1.3,4.2-2,6.6-2s4.7,0.7,6.6,2L22,2.2l0,2.6c1.8,1.8,2.8,4.3,2.8,6.8v16.4H23.3z
		 M11.7,15.4c1,0.8,2.2,1.2,3.4,1.2c1.2,0,2.4-0.4,3.4-1.2c-0.1-0.1-0.3-0.2-0.4-0.2L17.8,15l0.8-1.4l0.3,0.2
		c0.2,0.1,0.5,0.3,0.7,0.4c0.6-0.9,0.9-1.9,0.9-3V3.1c-1.6-0.9-3.4-1.5-5.4-1.5c-1.9,0-3.8,0.5-5.4,1.6l0,8.1c0,1.1,0.3,2.1,0.9,3
		c1.3-0.9,2.9-1.4,4.5-1.4c0.9,0,1.8,0.2,2.7,0.5l0.3,0.1l-0.5,1.5l-0.3-0.1c-0.7-0.3-1.4-0.4-2.2-0.4
		C13.9,14.4,12.7,14.7,11.7,15.4z"/>
</g>
</svg>
