<svg height="511pt" viewBox="0 0 511.9953 511" width="511pt" xmlns="http://www.w3.org/2000/svg"><path d="m275.230469 384.082031c-23.769531-15.316406-55.453125-8.460937-70.769531 15.308594-15.3125 23.769531-8.460938 55.453125 15.308593 70.769531s55.453125 8.464844 70.769531-15.304687c15.273438-23.777344 8.425782-55.433594-15.308593-70.773438zm.957031 61.53125c-10.203125 15.847657-31.320312 20.425781-47.171875 10.226563-15.851563-10.199219-20.433594-31.316406-10.234375-47.167969 10.195312-15.851563 31.3125-20.441406 47.164062-10.246094 7.675782 4.851563 13.078126 12.578125 15.003907 21.449219s.210937 18.144531-4.761719 25.738281zm0 0"/><path d="m65.59375 339.46875c6.519531 1.5625 13.203125 2.351562 19.90625 2.355469 39.460938-.109375 73.710938-27.230469 82.859375-65.613281.921875-4.027344 1.558594-8.113282 1.902344-12.226563 27.625-14.730469 54.792969-7.921875 71.578125-2.648437 6.359375 20.601562 14.960937 50.664062-3.328125 80.941406-3.039063.320312-6.0625.800781-9.054688 1.441406-39.789062 8.605469-67.960937 44.117188-67.285156 84.824219.675781 40.703125 30.015625 75.261719 70.070313 82.539062 40.054687 7.277344 79.671874-14.753906 94.621093-52.621093 14.953125-37.863282 1.074219-81.019532-33.148437-103.070313-.632813-.410156-1.296875-.734375-1.9375-1.117187 17.398437-29.761719 18.839844-66.234376 3.847656-97.28125 20.46875-11.835938 41.644531-22.410157 63.402344-31.65625 31.121094-13.238282 61.238281-28.726563 90.105468-46.34375 77.652344-47.890626 61.773438-93.867188 61.0625-95.789063-.875-2.371094-2.757812-4.230469-5.136718-5.078125-2.382813-.847656-5.015625-.597656-7.191406.683594l-121.269532 71.304687-40.277344 24.746094 20.761719-40.105469 73.472657-119.800781c1.308593-2.148437 1.601562-4.765625.804687-7.148437-.800781-2.386719-2.613281-4.296876-4.953125-5.222657-1.925781-.753906-47.503906-17.648437-96.996094 59.125-20.515625 32.335938-38.699218 66.089844-54.410156 101.011719-7.515625 15.988281-14.746094 31.207031-22.972656 46.222656-30.097656-14.289062-65.152344-13.65625-94.71875 1.707032-18.382813-28.945313-52.316406-44.0625-86.132813-38.378907-33.8125 5.6875-60.933593 31.074219-68.839843 64.441407-10.902344 45.84375 17.414062 91.847656 63.257812 102.757812zm239.289062 124.628906c-20.417968 31.695313-62.664062 40.832032-94.359374 20.410156-31.695313-20.417968-40.832032-62.667968-20.410157-94.359374 20.417969-31.695313 62.664063-40.832032 94.359375-20.414063 31.660156 20.445313 40.792969 62.664063 20.410156 94.363281zm80.511719-299.367187 109.363281-64.296875c-1.621093 13.5-11.476562 37.453125-54.613281 64-28.226562 17.222656-57.675781 32.367187-88.105469 45.3125-15 6.695312-29.472656 13.183594-44.757812 21.179687l13.789062-26.652343zm-94.957031 5.25c15.394531-34.222657 33.210938-67.300781 53.308594-98.988281 27.511718-42.667969 51.695312-52 65.167968-53.324219l-66.703124 108.730469-64.753907 125.101562c-1.417969 2.734375-1.25 6.023438.4375 8.601562 14.941407 27.140626 14.332031 60.179688-1.605469 86.75-5.980468-2.160156-12.1875-3.632812-18.5-4.398437 16.308594-34.371094 6.253907-67.113281-.085937-87.585937l-.851563-2.8125c-1.441406-4.089844-2.453124-8.316407-3.023437-12.613282 2.988281-4.652344 5.761719-9.242187 8.390625-13.824218.222656-.296876.429688-.609376.613281-.929688 10.324219-17.972656 18.722657-35.816406 27.605469-54.707031zm-47.035156 53.707031c-1.425782 2.339844-2.738282 4.667969-4.265625 7.03125-2.046875 3.445312-2.828125 7.496094-2.203125 11.453125-22.058594-6.488281-45.65625-5.402344-67.03125 3.078125-.867188-6.636719-2.519532-13.152344-4.921875-19.402344 24.390625-12.84375 53.359375-13.644531 78.421875-2.160156zm-193.84375-25.367188c32.113281-19.738281 74.148437-9.734374 93.925781 22.355469 1.152344 1.878907 2.183594 3.796875 3.140625 5.734375 16.1875 33.101563 3.1875 73.078125-29.378906 90.320313-32.5625 17.246093-72.933594 5.535156-91.21875-26.457031-18.28125-31.992188-7.875-72.722657 23.515625-92.023438zm0 0"/><path d="m85.425781 307.648438c21.695313-.023438 41.023438-13.71875 48.234375-34.183594 7.210938-20.464844.742188-43.25-16.148437-56.871094s-40.53125-15.117188-59-3.734375c-19.507813 12.019531-28.652344 35.535156-22.394531 57.574219 6.257812 22.039062 26.394531 37.238281 49.308593 37.214844zm-17.988281-80.214844c11.753906-7.246094 26.71875-6.691406 37.90625 1.398437 11.191406 8.09375 16.402344 22.128907 13.207031 35.5625-3.199219 13.433594-14.175781 23.617188-27.808593 25.800781-13.636719 2.183594-27.246094-4.0625-34.476563-15.828124-9.835937-16.050782-4.839844-37.03125 11.171875-46.933594zm0 0"/></svg>